# xmcd
#
# Track frame offsets:
#	150
#	12727
#	22985
#	34817
#	44595
#	58714
#	69690
#	81202
#	91032
#	102622
#	116300
#	127972
#
# Disc length: 1846
#
# Revision: 1
# Processed by: cddbd v1.5.1PL0 Copyright (c) Steve Scherf et al.
# Submitted via: ExactAudioCopy v0.90a11
# Normalized: r0:DSETVAR1,TDELIM( - )
#
DISCID=9d07340c
DTITLE=Various Artist - Bluegrass (The Life, Times and Music Series)
DYEAR=1900
DGENRE=
TTITLE0=Bill Monroe - Kentucky Waltz
TTITLE1=Carl Story and the Rambling Mountaineers - My Lord Keeps a Record
TTITLE2=Don Reno and Red Smiley - I Know You're Married But I Love You Still
TTITLE3=Mac Wiseman - Jimmy Brown the Newsboy
TTITLE4=The Stanley Brothers - Rank Stranger
TTITLE5=Lester Flatt and Earl Scruggs - Salty Dog Blues
TTITLE6=Jimmy Martin and the Sunny Mountain Boys - Sunnyside of the Mountain
TTITLE7=Jim and Jesse - Memphis
TTITLE8=Bill Emerson and Cliff Waldron - Fox on the Run
TTITLE9=The Country Gentlemen - Bringing Mary Home
TTITLE10=Osborne Brothers - Rocky Top
TTITLE11=Front Porch String Band - Go My Way
EXTD=Book by Chris Seymour
EXTT0=
EXTT1=
EXTT2=
EXTT3=
EXTT4=
EXTT5=
EXTT6=
EXTT7=
EXTT8=
EXTT9=
EXTT10=
EXTT11=
PLAYORDER=
